<svg width="37" height="37" viewBox="0 0 37 37" fill="none" xmlns="http://www.w3.org/2000/svg">
<rect width="37" height="37" rx="18.5" fill="#E30A13"/>
<path fill-rule="evenodd" clip-rule="evenodd" d="M13.2577 12.2577C16.268 9.24742 21.1487 9.24742 24.159 12.2577C27.1694 15.268 27.1694 20.1487 24.159 23.159L19.3293 27.9888C19.1646 28.1534 18.9413 28.246 18.7084 28.246C18.4755 28.246 18.2521 28.1534 18.0875 27.9888L13.2577 23.159C10.2474 20.1487 10.2474 15.268 13.2577 12.2577ZM18.7083 15.0739C17.2534 15.0739 16.0739 16.2534 16.0739 17.7083V17.7171C16.0739 19.172 17.2534 20.3515 18.7083 20.3515H18.7171C20.172 20.3515 21.3515 19.172 21.3515 17.7171V17.7083C21.3515 16.2534 20.172 15.0739 18.7171 15.0739H18.7083Z" fill="white"/>
</svg>
