<svg width="37" height="37" viewBox="0 0 37 37" fill="none" xmlns="http://www.w3.org/2000/svg">
<rect width="37" height="37" rx="18.5" fill="#E30A13"/>
<path d="M11 12.25C11 11.388 11.3424 10.5614 11.9519 9.9519C12.5614 9.34241 13.388 9 14.25 9H23.75C24.612 9 25.4386 9.34241 26.0481 9.9519C26.6576 10.5614 27 11.388 27 12.25V25.75C27 26.1768 26.9159 26.5994 26.7526 26.9937C26.5893 27.388 26.3499 27.7463 26.0481 28.0481C25.7463 28.3499 25.388 28.5893 24.9937 28.7526C24.5994 28.9159 24.1768 29 23.75 29H14.25C13.8232 29 13.4006 28.9159 13.0063 28.7526C12.612 28.5893 12.2537 28.3499 11.9519 28.0481C11.6501 27.7463 11.4107 27.388 11.2474 26.9937C11.0841 26.5994 11 26.1768 11 25.75V12.25ZM16 12C15.4696 12 14.9609 12.2107 14.5858 12.5858C14.2107 12.9609 14 13.4696 14 14V15C14 15.5304 14.2107 16.0391 14.5858 16.4142C14.9609 16.7893 15.4696 17 16 17H22C22.5304 17 23.0391 16.7893 23.4142 16.4142C23.7893 16.0391 24 15.5304 24 15V14C24 13.4696 23.7893 12.9609 23.4142 12.5858C23.0391 12.2107 22.5304 12 22 12H16ZM16.5 20.25C16.5 19.9185 16.3683 19.6005 16.1339 19.3661C15.8995 19.1317 15.5815 19 15.25 19C14.9185 19 14.6005 19.1317 14.3661 19.3661C14.1317 19.6005 14 19.9185 14 20.25C14 20.5815 14.1317 20.8995 14.3661 21.1339C14.6005 21.3683 14.9185 21.5 15.25 21.5C15.5815 21.5 15.8995 21.3683 16.1339 21.1339C16.3683 20.8995 16.5 20.5815 16.5 20.25ZM15.25 25.5C15.5815 25.5 15.8995 25.3683 16.1339 25.1339C16.3683 24.8995 16.5 24.5815 16.5 24.25C16.5 23.9185 16.3683 23.6005 16.1339 23.3661C15.8995 23.1317 15.5815 23 15.25 23C14.9185 23 14.6005 23.1317 14.3661 23.3661C14.1317 23.6005 14 23.9185 14 24.25C14 24.5815 14.1317 24.8995 14.3661 25.1339C14.6005 25.3683 14.9185 25.5 15.25 25.5ZM24 20.25C24 19.9185 23.8683 19.6005 23.6339 19.3661C23.3995 19.1317 23.0815 19 22.75 19C22.4185 19 22.1005 19.1317 21.8661 19.3661C21.6317 19.6005 21.5 19.9185 21.5 20.25C21.5 20.5815 21.6317 20.8995 21.8661 21.1339C22.1005 21.3683 22.4185 21.5 22.75 21.5C23.0815 21.5 23.3995 21.3683 23.6339 21.1339C23.8683 20.8995 24 20.5815 24 20.25ZM22.75 25.5C23.0815 25.5 23.3995 25.3683 23.6339 25.1339C23.8683 24.8995 24 24.5815 24 24.25C24 23.9185 23.8683 23.6005 23.6339 23.3661C23.3995 23.1317 23.0815 23 22.75 23C22.4185 23 22.1005 23.1317 21.8661 23.3661C21.6317 23.6005 21.5 23.9185 21.5 24.25C21.5 24.5815 21.6317 24.8995 21.8661 25.1339C22.1005 25.3683 22.4185 25.5 22.75 25.5ZM20.25 20.25C20.25 19.9185 20.1183 19.6005 19.8839 19.3661C19.6495 19.1317 19.3315 19 19 19C18.6685 19 18.3505 19.1317 18.1161 19.3661C17.8817 19.6005 17.75 19.9185 17.75 20.25C17.75 20.5815 17.8817 20.8995 18.1161 21.1339C18.3505 21.3683 18.6685 21.5 19 21.5C19.3315 21.5 19.6495 21.3683 19.8839 21.1339C20.1183 20.8995 20.25 20.5815 20.25 20.25ZM19 25.5C19.3315 25.5 19.6495 25.3683 19.8839 25.1339C20.1183 24.8995 20.25 24.5815 20.25 24.25C20.25 23.9185 20.1183 23.6005 19.8839 23.3661C19.6495 23.1317 19.3315 23 19 23C18.6685 23 18.3505 23.1317 18.1161 23.3661C17.8817 23.6005 17.75 23.9185 17.75 24.25C17.75 24.5815 17.8817 24.8995 18.1161 25.1339C18.3505 25.3683 18.6685 25.5 19 25.5Z" fill="white"/>
</svg>
