<svg width="37" height="37" viewBox="0 0 37 37" fill="none" xmlns="http://www.w3.org/2000/svg">
<rect width="37" height="37" rx="18.5" fill="#E30A13"/>
<path fill-rule="evenodd" clip-rule="evenodd" d="M24.8928 24.8916C22.346 27.4387 18.5748 27.989 15.4886 26.5618C15.033 26.3783 14.6595 26.2301 14.3044 26.2301C13.3154 26.2359 12.0843 27.195 11.4444 26.5559C10.8046 25.916 11.7643 24.6839 11.7643 23.6889C11.7643 23.3337 11.622 22.9669 11.4386 22.5104C10.0107 19.4248 10.5617 15.6523 13.1085 13.1061C16.3596 9.85377 21.6416 9.85377 24.8928 13.1052C28.1497 16.3626 28.1439 21.6402 24.8928 24.8916ZM19.8286 20.19C19.7107 20.5635 19.4365 20.8903 19.0448 20.8903H18.9695C18.5212 20.8903 18.1521 20.5168 18.2105 20.0723C18.2426 19.8277 18.2855 19.6394 18.339 19.5075C18.4419 19.2503 18.707 18.9556 19.1343 18.6232L19.5675 18.285C19.7099 18.1781 19.8247 18.0614 19.9117 17.9348C20.07 17.7172 20.1491 17.4778 20.1491 17.2167C20.1491 16.916 20.0601 16.643 19.882 16.3977C19.708 16.1485 19.3875 16.0239 18.9206 16.0239C18.4617 16.0239 18.1353 16.1762 17.9414 16.4808C17.9118 16.5283 17.8845 16.5761 17.8595 16.6242C17.6457 17.0356 17.2807 17.4304 16.8171 17.4304C16.3395 17.4304 15.944 17.0273 16.0617 16.5646C16.2351 15.883 16.5887 15.3725 17.1224 15.0328C17.5893 14.7321 18.163 14.5817 18.8435 14.5817C19.7376 14.5817 20.4795 14.7954 21.069 15.2227C21.6624 15.65 21.9592 16.283 21.9592 17.1218C21.9592 17.6361 21.8306 18.0693 21.5734 18.4215C21.4231 18.6351 21.1343 18.9081 20.707 19.2404L20.2856 19.5668C20.0561 19.7449 19.9038 19.9526 19.8286 20.19ZM19.8761 22.5609C19.8761 23.0345 19.4922 23.4184 19.0186 23.4184H18.9651C18.4915 23.4184 18.1076 23.0345 18.1076 22.5609C18.1076 22.0872 18.4915 21.7033 18.9651 21.7033H19.0186C19.4922 21.7033 19.8761 22.0872 19.8761 22.5609Z" fill="white"/>
</svg>
